<!-- <svg xmlns="http://www.w3.org/2000/svg" viewBox="0 0 841.9 595.3"><g fill="#61DAFB"><path d="M666.3 296.5c0-32.5-40.7-63.3-103.1-82.4 14.4-63.6 8-114.2-20.2-130.4-6.5-3.8-14.1-5.6-22.4-5.6v22.3c4.6 0 8.3.9 11.4 2.6 13.6 7.8 19.5 37.5 14.9 75.7-1.1 9.4-2.9 19.3-5.1 29.4-19.6-4.8-41-8.5-63.5-10.9-13.5-18.5-27.5-35.3-41.6-50 32.6-30.3 63.2-46.9 84-46.9V78c-27.5 0-63.5 19.6-99.9 53.6-36.4-33.8-72.4-53.2-99.9-53.2v22.3c20.7 0 51.4 16.5 84 46.6-14 14.7-28 31.4-41.3 49.9-22.6 2.4-44 6.1-63.6 11-2.3-10-4-19.7-5.2-29-4.7-38.2 1.1-67.9 14.6-75.8 3-1.8 6.9-2.6 11.5-2.6V78.5c-8.4 0-16 1.8-22.6 5.6-28.1 16.2-34.4 66.7-19.9 130.1-62.2 19.2-102.7 49.9-102.7 82.3 0 32.5 40.7 63.3 103.1 82.4-14.4 63.6-8 114.2 20.2 130.4 6.5 3.8 14.1 5.6 22.5 5.6 27.5 0 63.5-19.6 99.9-53.6 36.4 33.8 72.4 53.2 99.9 53.2 8.4 0 16-1.8 22.6-5.6 28.1-16.2 34.4-66.7 19.9-130.1 62-19.1 102.5-49.9 102.5-82.3zm-130.2-66.7c-3.7 12.9-8.3 26.2-13.5 39.5-4.1-8-8.4-16-13.1-24-4.6-8-9.5-15.8-14.4-23.4 14.2 2.1 27.9 4.7 41 7.9zm-45.8 106.5c-7.8 13.5-15.8 26.3-24.1 38.2-14.9 1.3-30 2-45.2 2-15.1 0-30.2-.7-45-1.9-8.3-11.9-16.4-24.6-24.2-38-7.6-13.1-14.5-26.4-20.8-39.8 6.2-13.4 13.2-26.8 20.7-39.9 7.8-13.5 15.8-26.3 24.1-38.2 14.9-1.3 30-2 45.2-2 15.1 0 30.2.7 45 1.9 8.3 11.9 16.4 24.6 24.2 38 7.6 13.1 14.5 26.4 20.8 39.8-6.3 13.4-13.2 26.8-20.7 39.9zm32.3-13c5.4 13.4 10 26.8 13.8 39.8-13.1 3.2-26.9 5.9-41.2 8 4.9-7.7 9.8-15.6 14.4-23.7 4.6-8 8.9-16.1 13-24.1zM421.2 430c-9.3-9.6-18.6-20.3-27.8-32 9 .4 18.2.7 27.5.7 9.4 0 18.7-.2 27.8-.7-9 11.7-18.3 22.4-27.5 32zm-74.4-58.9c-14.2-2.1-27.9-4.7-41-7.9 3.7-12.9 8.3-26.2 13.5-39.5 4.1 8 8.4 16 13.1 24 4.7 8 9.5 15.8 14.4 23.4zM420.7 163c9.3 9.6 18.6 20.3 27.8 32-9-.4-18.2-.7-27.5-.7-9.4 0-18.7.2-27.8.7 9-11.7 18.3-22.4 27.5-32zm-74 58.9c-4.9 7.7-9.8 15.6-14.4 23.7-4.6 8-8.9 16-13 24-5.4-13.4-10-26.8-13.8-39.8 13.1-3.1 26.9-5.8 41.2-7.9zm-90.5 125.2c-35.4-15.1-58.3-34.9-58.3-50.6 0-15.7 22.9-35.6 58.3-50.6 8.6-3.7 18-7 27.7-10.1 5.7 19.6 13.2 40 22.5 60.9-9.2 20.8-16.6 41.1-22.2 60.6-9.9-3.1-19.3-6.5-28-10.2zM310 490c-13.6-7.8-19.5-37.5-14.9-75.7 1.1-9.4 2.9-19.3 5.1-29.4 19.6 4.8 41 8.5 63.5 10.9 13.5 18.5 27.5 35.3 41.6 50-32.6 30.3-63.2 46.9-84 46.9-4.5-.1-8.3-1-11.3-2.7zm237.2-76.2c4.7 38.2-1.1 67.9-14.6 75.8-3 1.8-6.9 2.6-11.5 2.6-20.7 0-51.4-16.5-84-46.6 14-14.7 28-31.4 41.3-49.9 22.6-2.4 44-6.1 63.6-11 2.3 10.1 4.1 19.8 5.2 29.1zm38.5-66.7c-8.6 3.7-18 7-27.7 10.1-5.7-19.6-13.2-40-22.5-60.9 9.2-20.8 16.6-41.1 22.2-60.6 9.9 3.1 19.3 6.5 28.1 10.2 35.4 15.1 58.3 34.9 58.3 50.6-.1 15.7-23 35.6-58.4 50.6zM320.8 78.4z"/><circle cx="420.9" cy="296.5" r="45.7"/><path d="M520.5 78.1z"/></g></svg> -->

<!-- <svg class="xduoyf" width="127" height="24" viewBox="0 0 127 24" fill="none" xmlns="http://www.w3.org/2000/svg"> -->

<svg class="xduoyf" width="127" height="24" viewBox="0 0 127 24" fill="none" xmlns="http://www.w3.org/2000/svg"><path d="M9.9 9a27.8 27.8 0 0 1 24 .4c.4.3 1 0 1.1-.4l1.4-4.3c.2-.4 0-1-.5-1.2A34 34 0 0 0 .4 6.9a1 1 0 0 0-.3 1.3l3.3 7.3c.2.5.8.8 1.3.6 3.7-1.4 9.4-2.8 15.2-2-4 .7-7.1 2.1-9.6 3.6A1 1 0 0 0 10 19l2 4.6c.2.4.7.5 1 .2.8-.8 1.6-1.4 2.3-1.8 3.2-1.8 7.6-3.2 13.5-2.9a1 1 0 0 0 1-.7l1.5-4.5c.2-.4 0-1-.4-1.2A30.5 30.5 0 0 0 9.8 9z" fill="url(#i2)"></path><path d="M66.7 20h-2a.6.6 0 0 1-.6-.7V7.5h-5a.6.6 0 0 1-.6-.6V5.1c0-.4.3-.6.6-.6h13.2c.3 0 .6.2.6.6v1.8c0 .3-.3.6-.6.6h-5v11.8c0 .4-.3.6-.6.6zM53.5 20h-9.2a.6.6 0 0 1-.5-.7v-1.8c0-.3.2-.6.5-.6h9.8c.5 0 1-.4 1-1v-1.3c0-.5-.5-1-1-1h-6.5c-1.8 0-2.8-.3-3.6-1-.8-.8-1-1.8-1-3.4V9c0-1.6.2-2.5 1-3.3.8-.8 1.8-1.1 3.6-1.1h8.7c.4 0 .6.2.6.6v1.8c0 .3-.2.6-.6.6h-9.2a1 1 0 0 0-1 1v1.2c0 .5.4 1 1 1h6.4c1.8 0 2.9.3 3.7 1.1.7.7 1 1.7 1 3.3v.4c0 1.6-.3 2.5-1 3.3-.8.8-1.9 1.1-3.7 1.1zM101.6 6.3c-1.2-1.2-3-1.8-5.4-1.8h-7c-.4 0-.6.2-.6.6v14.3c0 .3.2.5.5.5h7.1c2.4 0 4.2-.6 5.4-1.8 1.4-1.3 1.8-2.9 1.8-5.8v-.1c0-3-.4-4.5-1.8-5.9zm-1.4 6c0 2 0 2.9-.9 3.7-.6.6-1.6 1-3 1h-4.5V7.4h4.4c1.5 0 2.5.3 3.1 1 .8.7 1 1.7 1 3.7zM108 20h-2a.6.6 0 0 1-.6-.7V5.1c0-.4.3-.6.6-.6h2c.4 0 .6.2.6.6v14.2c0 .4-.2.6-.5.6zM87.2 19L80.6 5.5a2 2 0 0 0-1.8-1.2A2 2 0 0 0 77 5.4L70.4 19c-.2.4 0 .8.5.8h2.2c.3 0 .6-.2.7-.4l1-2.2h8l1 2.2c.1.2.4.4.7.4h2.2c.4 0 .7-.4.5-.8zM78.8 8.4l2.7 6.1h-5.4l2.7-6.1zM127 19l-6.6-13.6a2 2 0 0 0-1.9-1.2 2 2 0 0 0-1.8 1.2L110.1 19c-.2.4.1.8.6.8h2.1c.3 0 .6-.2.7-.4l1-2.2h8l1 2.2c.2.2.4.4.8.4h2.1c.4 0 .7-.4.5-.8zm-8.5-10.7l2.7 6.1h-5.4l2.7-6.1z" fill="#3C4043"></path><defs><linearGradient id="i2" x1="13.1" y1="-1.1" x2="26.7" y2="20.6" gradientUnits="userSpaceOnUse"><stop offset=".1" stop-color="#FF4C1D"></stop><stop offset=".3" stop-color="#F64523"></stop><stop offset=".5" stop-color="#DE3334"></stop><stop offset=".8" stop-color="#B61550"></stop><stop offset="1" stop-color="#9B0063"></stop></linearGradient></defs></svg>